<mxfile host="app.diagrams.net" modified="2024-06-11T09:54:20.923Z" agent="Mozilla/5.0 (Windows NT 10.0; Win64; x64) AppleWebKit/537.36 (KHTML, like Gecko) Chrome/125.0.0.0 Safari/537.36 Edg/125.0.0.0" version="24.5.2" etag="Px8YZf2ouMQEnpuqQtQd" type="github">
  <diagram name="Page-1" id="MDTTnrk6KyO02ENH2v_J">
    <mxGraphModel>
      <root>
        <mxCell id="0" />
        <mxCell id="1" parent="0" />
      </root>
    </mxGraphModel>
  </diagram>
</mxfile>
